$MeshFormat
2.2 0 8
$EndMeshFormat
$Nodes
861
1 0 0 0
2 0.05 0 0
3 0.1 0 0
4 0.15 0 0
5 0.2 0 0
6 0.25 0 0
7 0.3 0 0
8 0.35 0 0
9 0.4 0 0
10 0.45 0 0
11 0.5 0 0
12 0.55 0 0
13 0.6 0 0
14 0.65 0 0
15 0.7 0 0
16 0.75 0 0
17 0.8 0 0
18 0.85 0 0
19 0.9 0 0
20 0.95 0 0
21 1 0 0
22 0 0.05 0
23 0.05 0.05 0
24 0.1 0.05 0
25 0.15 0.05 0
26 0.2 0.05 0
27 0.25 0.05 0
28 0.3 0.05 0
29 0.35 0.05 0
30 0.4 0.05 0
31 0.45 0.05 0
32 0.5 0.05 0
33 0.55 0.05 0
34 0.6 0.05 0
35 0.65 0.05 0
36 0.7 0.05 0
37 0.75 0.05 0
38 0.8 0.05 0
39 0.85 0.05 0
40 0.9 0.05 0
41 0.95 0.05 0
42 1 0.05 0
43 0 0.1 0
44 0.05 0.1 0
45 0.1 0.1 0
46 0.15 0.1 0
47 0.2 0.1 0
48 0.25 0.1 0
49 0.3 0.1 0
50 0.35 0.1 0
51 0.4 0.1 0
52 0.45 0.1 0
53 0.5 0.1 0
54 0.55 0.1 0
55 0.6 0.1 0
56 0.65 0.1 0
57 0.7 0.1 0
58 0.75 0.1 0
59 0.8 0.1 0
60 0.85 0.1 0
61 0.9 0.1 0
62 0.95 0.1 0
63 1 0.1 0
64 0 0.15 0
65 0.05 0.15 0
66 0.1 0.15 0
67 0.15 0.15 0
68 0.2 0.15 0
69 0.25 0.15 0
70 0.3 0.15 0
71 0.35 0.15 0
72 0.4 0.15 0
73 0.45 0.15 0
74 0.5 0.15 0
75 0.55 0.15 0
76 0.6 0.15 0
77 0.65 0.15 0
78 0.7 0.15 0
79 0.75 0.15 0
80 0.8 0.15 0
81 0.85 0.15 0
82 0.9 0.15 0
83 0.95 0.15 0
84 1 0.15 0
85 0 0.2 0
86 0.05 0.2 0
87 0.1 0.2 0
88 0.15 0.2 0
89 0.2 0.2 0
90 0.25 0.2 0
91 0.3 0.2 0
92 0.35 0.2 0
93 0.4 0.2 0
94 0.45 0.2 0
95 0.5 0.2 0
96 0.55 0.2 0
97 0.6 0.2 0
98 0.65 0.2 0
99 0.7 0.2 0
100 0.75 0.2 0
101 0.8 0.2 0
102 0.85 0.2 0
103 0.9 0.2 0
104 0.95 0.2 0
105 1 0.2 0
106 0 0.25 0
107 0.05 0.25 0
108 0.1 0.25 0
109 0.15 0.25 0
110 0.2 0.25 0
111 0.25 0.25 0
112 0.3 0.25 0
113 0.35 0.25 0
114 0.4 0.25 0
115 0.45 0.25 0
116 0.5 0.25 0
117 0.55 0.25 0
118 0.6 0.25 0
119 0.65 0.25 0
120 0.7 0.25 0
121 0.75 0.25 0
122 0.8 0.25 0
123 0.85 0.25 0
124 0.9 0.25 0
125 0.95 0.25 0
126 1 0.25 0
127 0 0.3 0
128 0.05 0.3 0
129 0.1 0.3 0
130 0.15 0.3 0
131 0.2 0.3 0
132 0.25 0.3 0
133 0.3 0.3 0
134 0.35 0.3 0
135 0.4 0.3 0
136 0.45 0.3 0
137 0.5 0.3 0
138 0.55 0.3 0
139 0.6 0.3 0
140 0.65 0.3 0
141 0.7 0.3 0
142 0.75 0.3 0
143 0.8 0.3 0
144 0.85 0.3 0
145 0.9 0.3 0
146 0.95 0.3 0
147 1 0.3 0
148 0 0.35 0
149 0.05 0.35 0
150 0.1 0.35 0
151 0.15 0.35 0
152 0.2 0.35 0
153 0.25 0.35 0
154 0.3 0.35 0
155 0.35 0.35 0
156 0.4 0.35 0
157 0.45 0.35 0
158 0.5 0.35 0
159 0.55 0.35 0
160 0.6 0.35 0
161 0.65 0.35 0
162 0.7 0.35 0
163 0.75 0.35 0
164 0.8 0.35 0
165 0.85 0.35 0
166 0.9 0.35 0
167 0.95 0.35 0
168 1 0.35 0
169 0 0.4 0
170 0.05 0.4 0
171 0.1 0.4 0
172 0.15 0.4 0
173 0.2 0.4 0
174 0.25 0.4 0
175 0.3 0.4 0
176 0.35 0.4 0
177 0.4 0.4 0
178 0.45 0.4 0
179 0.5 0.4 0
180 0.55 0.4 0
181 0.6 0.4 0
182 0.65 0.4 0
183 0.7 0.4 0
184 0.75 0.4 0
185 0.8 0.4 0
186 0.85 0.4 0
187 0.9 0.4 0
188 0.95 0.4 0
189 1 0.4 0
190 0 0.45 0
191 0.05 0.45 0
192 0.1 0.45 0
193 0.15 0.45 0
194 0.2 0.45 0
195 0.25 0.45 0
196 0.3 0.45 0
197 0.35 0.45 0
198 0.4 0.45 0
199 0.45 0.45 0
200 0.5 0.45 0
201 0.55 0.45 0
202 0.6 0.45 0
203 0.65 0.45 0
204 0.7 0.45 0
205 0.75 0.45 0
206 0.8 0.45 0
207 0.85 0.45 0
208 0.9 0.45 0
209 0.95 0.45 0
210 1 0.45 0
211 0 0.5 0
212 0.05 0.5 0
213 0.1 0.5 0
214 0.15 0.5 0
215 0.2 0.5 0
216 0.25 0.5 0
217 0.3 0.5 0
218 0.35 0.5 0
219 0.4 0.5 0
220 0.45 0.5 0
221 0.5 0.5 0
222 0.55 0.5 0
223 0.6 0.5 0
224 0.65 0.5 0
225 0.7 0.5 0
226 0.75 0.5 0
227 0.8 0.5 0
228 0.85 0.5 0
229 0.9 0.5 0
230 0.95 0.5 0
231 1 0.5 0
232 0 0.55 0
233 0.05 0.55 0
234 0.1 0.55 0
235 0.15 0.55 0
236 0.2 0.55 0
237 0.25 0.55 0
238 0.3 0.55 0
239 0.35 0.55 0
240 0.4 0.55 0
241 0.45 0.55 0
242 0.5 0.55 0
243 0.55 0.55 0
244 0.6 0.55 0
245 0.65 0.55 0
246 0.7 0.55 0
247 0.75 0.55 0
248 0.8 0.55 0
249 0.85 0.55 0
250 0.9 0.55 0
251 0.95 0.55 0
252 1 0.55 0
253 0 0.6 0
254 0.05 0.6 0
255 0.1 0.6 0
256 0.15 0.6 0
257 0.2 0.6 0
258 0.25 0.6 0
259 0.3 0.6 0
260 0.35 0.6 0
261 0.4 0.6 0
262 0.45 0.6 0
263 0.5 0.6 0
264 0.55 0.6 0
265 0.6 0.6 0
266 0.65 0.6 0
267 0.7 0.6 0
268 0.75 0.6 0
269 0.8 0.6 0
270 0.85 0.6 0
271 0.9 0.6 0
272 0.95 0.6 0
273 1 0.6 0
274 0 0.65 0
275 0.05 0.65 0
276 0.1 0.65 0
277 0.15 0.65 0
278 0.2 0.65 0
279 0.25 0.65 0
280 0.3 0.65 0
281 0.35 0.65 0
282 0.4 0.65 0
283 0.45 0.65 0
284 0.5 0.65 0
285 0.55 0.65 0
286 0.6 0.65 0
287 0.65 0.65 0
288 0.7 0.65 0
289 0.75 0.65 0
290 0.8 0.65 0
291 0.85 0.65 0
292 0.9 0.65 0
293 0.95 0.65 0
294 1 0.65 0
295 0 0.7 0
296 0.05 0.7 0
297 0.1 0.7 0
298 0.15 0.7 0
299 0.2 0.7 0
300 0.25 0.7 0
301 0.3 0.7 0
302 0.35 0.7 0
303 0.4 0.7 0
304 0.45 0.7 0
305 0.5 0.7 0
306 0.55 0.7 0
307 0.6 0.7 0
308 0.65 0.7 0
309 0.7 0.7 0
310 0.75 0.7 0
311 0.8 0.7 0
312 0.85 0.7 0
313 0.9 0.7 0
314 0.95 0.7 0
315 1 0.7 0
316 0 0.75 0
317 0.05 0.75 0
318 0.1 0.75 0
319 0.15 0.75 0
320 0.2 0.75 0
321 0.25 0.75 0
322 0.3 0.75 0
323 0.35 0.75 0
324 0.4 0.75 0
325 0.45 0.75 0
326 0.5 0.75 0
327 0.55 0.75 0
328 0.6 0.75 0
329 0.65 0.75 0
330 0.7 0.75 0
331 0.75 0.75 0
332 0.8 0.75 0
333 0.85 0.75 0
334 0.9 0.75 0
335 0.95 0.75 0
336 1 0.75 0
337 0 0.8 0
338 0.05 0.8 0
339 0.1 0.8 0
340 0.15 0.8 0
341 0.2 0.8 0
342 0.25 0.8 0
343 0.3 0.8 0
344 0.35 0.8 0
345 0.4 0.8 0
346 0.45 0.8 0
347 0.5 0.8 0
348 0.55 0.8 0
349 0.6 0.8 0
350 0.65 0.8 0
351 0.7 0.8 0
352 0.75 0.8 0
353 0.8 0.8 0
354 0.85 0.8 0
355 0.9 0.8 0
356 0.95 0.8 0
357 1 0.8 0
358 0 0.85 0
359 0.05 0.85 0
360 0.1 0.85 0
361 0.15 0.85 0
362 0.2 0.85 0
363 0.25 0.85 0
364 0.3 0.85 0
365 0.35 0.85 0
366 0.4 0.85 0
367 0.45 0.85 0
368 0.5 0.85 0
369 0.55 0.85 0
370 0.6 0.85 0
371 0.65 0.85 0
372 0.7 0.85 0
373 0.75 0.85 0
374 0.8 0.85 0
375 0.85 0.85 0
376 0.9 0.85 0
377 0.95 0.85 0
378 1 0.85 0
379 0 0.9 0
380 0.05 0.9 0
381 0.1 0.9 0
382 0.15 0.9 0
383 0.2 0.9 0
384 0.25 0.9 0
385 0.3 0.9 0
386 0.35 0.9 0
387 0.4 0.9 0
388 0.45 0.9 0
389 0.5 0.9 0
390 0.55 0.9 0
391 0.6 0.9 0
392 0.65 0.9 0
393 0.7 0.9 0
394 0.75 0.9 0
395 0.8 0.9 0
396 0.85 0.9 0
397 0.9 0.9 0
398 0.95 0.9 0
399 1 0.9 0
400 0 0.95 0
401 0.05 0.95 0
402 0.1 0.95 0
403 0.15 0.95 0
404 0.2 0.95 0
405 0.25 0.95 0
406 0.3 0.95 0
407 0.35 0.95 0
408 0.4 0.95 0
409 0.45 0.95 0
410 0.5 0.95 0
411 0.55 0.95 0
412 0.6 0.95 0
413 0.65 0.95 0
414 0.7 0.95 0
415 0.75 0.95 0
416 0.8 0.95 0
417 0.85 0.95 0
418 0.9 0.95 0
419 0.95 0.95 0
420 1 0.95 0
421 0 1 0
422 0.05 1 0
423 0.1 1 0
424 0.15 1 0
425 0.2 1 0
426 0.25 1 0
427 0.3 1 0
428 0.35 1 0
429 0.4 1 0
430 0.45 1 0
431 0.5 1 0
432 0.55 1 0
433 0.6 1 0
434 0.65 1 0
435 0.7 1 0
436 0.75 1 0
437 0.8 1 0
438 0.85 1 0
439 0.9 1 0
440 0.95 1 0
441 1 1 0
442 0 1.05 0
443 0.05 1.05 0
444 0.1 1.05 0
445 0.15 1.05 0
446 0.2 1.05 0
447 0.25 1.05 0
448 0.3 1.05 0
449 0.35 1.05 0
450 0.4 1.05 0
451 0.45 1.05 0
452 0.5 1.05 0
453 0.55 1.05 0
454 0.6 1.05 0
455 0.65 1.05 0
456 0.7 1.05 0
457 0.75 1.05 0
458 0.8 1.05 0
459 0.85 1.05 0
460 0.9 1.05 0
461 0.95 1.05 0
462 1 1.05 0
463 0 1.1 0
464 0.05 1.1 0
465 0.1 1.1 0
466 0.15 1.1 0
467 0.2 1.1 0
468 0.25 1.1 0
469 0.3 1.1 0
470 0.35 1.1 0
471 0.4 1.1 0
472 0.45 1.1 0
473 0.5 1.1 0
474 0.55 1.1 0
475 0.6 1.1 0
476 0.65 1.1 0
477 0.7 1.1 0
478 0.75 1.1 0
479 0.8 1.1 0
480 0.85 1.1 0
481 0.9 1.1 0
482 0.95 1.1 0
483 1 1.1 0
484 0 1.15 0
485 0.05 1.15 0
486 0.1 1.15 0
487 0.15 1.15 0
488 0.2 1.15 0
489 0.25 1.15 0
490 0.3 1.15 0
491 0.35 1.15 0
492 0.4 1.15 0
493 0.45 1.15 0
494 0.5 1.15 0
495 0.55 1.15 0
496 0.6 1.15 0
497 0.65 1.15 0
498 0.7 1.15 0
499 0.75 1.15 0
500 0.8 1.15 0
501 0.85 1.15 0
502 0.9 1.15 0
503 0.95 1.15 0
504 1 1.15 0
505 0 1.2 0
506 0.05 1.2 0
507 0.1 1.2 0
508 0.15 1.2 0
509 0.2 1.2 0
510 0.25 1.2 0
511 0.3 1.2 0
512 0.35 1.2 0
513 0.4 1.2 0
514 0.45 1.2 0
515 0.5 1.2 0
516 0.55 1.2 0
517 0.6 1.2 0
518 0.65 1.2 0
519 0.7 1.2 0
520 0.75 1.2 0
521 0.8 1.2 0
522 0.85 1.2 0
523 0.9 1.2 0
524 0.95 1.2 0
525 1 1.2 0
526 0 1.25 0
527 0.05 1.25 0
528 0.1 1.25 0
529 0.15 1.25 0
530 0.2 1.25 0
531 0.25 1.25 0
532 0.3 1.25 0
533 0.35 1.25 0
534 0.4 1.25 0
535 0.45 1.25 0
536 0.5 1.25 0
537 0.55 1.25 0
538 0.6 1.25 0
539 0.65 1.25 0
540 0.7 1.25 0
541 0.75 1.25 0
542 0.8 1.25 0
543 0.85 1.25 0
544 0.9 1.25 0
545 0.95 1.25 0
546 1 1.25 0
547 0 1.3 0
548 0.05 1.3 0
549 0.1 1.3 0
550 0.15 1.3 0
551 0.2 1.3 0
552 0.25 1.3 0
553 0.3 1.3 0
554 0.35 1.3 0
555 0.4 1.3 0
556 0.45 1.3 0
557 0.5 1.3 0
558 0.55 1.3 0
559 0.6 1.3 0
560 0.65 1.3 0
561 0.7 1.3 0
562 0.75 1.3 0
563 0.8 1.3 0
564 0.85 1.3 0
565 0.9 1.3 0
566 0.95 1.3 0
567 1 1.3 0
568 0 1.35 0
569 0.05 1.35 0
570 0.1 1.35 0
571 0.15 1.35 0
572 0.2 1.35 0
573 0.25 1.35 0
574 0.3 1.35 0
575 0.35 1.35 0
576 0.4 1.35 0
577 0.45 1.35 0
578 0.5 1.35 0
579 0.55 1.35 0
580 0.6 1.35 0
581 0.65 1.35 0
582 0.7 1.35 0
583 0.75 1.35 0
584 0.8 1.35 0
585 0.85 1.35 0
586 0.9 1.35 0
587 0.95 1.35 0
588 1 1.35 0
589 0 1.4 0
590 0.05 1.4 0
591 0.1 1.4 0
592 0.15 1.4 0
593 0.2 1.4 0
594 0.25 1.4 0
595 0.3 1.4 0
596 0.35 1.4 0
597 0.4 1.4 0
598 0.45 1.4 0
599 0.5 1.4 0
600 0.55 1.4 0
601 0.6 1.4 0
602 0.65 1.4 0
603 0.7 1.4 0
604 0.75 1.4 0
605 0.8 1.4 0
606 0.85 1.4 0
607 0.9 1.4 0
608 0.95 1.4 0
609 1 1.4 0
610 0 1.45 0
611 0.05 1.45 0
612 0.1 1.45 0
613 0.15 1.45 0
614 0.2 1.45 0
615 0.25 1.45 0
616 0.3 1.45 0
617 0.35 1.45 0
618 0.4 1.45 0
619 0.45 1.45 0
620 0.5 1.45 0
621 0.55 1.45 0
622 0.6 1.45 0
623 0.65 1.45 0
624 0.7 1.45 0
625 0.75 1.45 0
626 0.8 1.45 0
627 0.85 1.45 0
628 0.9 1.45 0
629 0.95 1.45 0
630 1 1.45 0
631 0 1.5 0
632 0.05 1.5 0
633 0.1 1.5 0
634 0.15 1.5 0
635 0.2 1.5 0
636 0.25 1.5 0
637 0.3 1.5 0
638 0.35 1.5 0
639 0.4 1.5 0
640 0.45 1.5 0
641 0.5 1.5 0
642 0.55 1.5 0
643 0.6 1.5 0
644 0.65 1.5 0
645 0.7 1.5 0
646 0.75 1.5 0
647 0.8 1.5 0
648 0.85 1.5 0
649 0.9 1.5 0
650 0.95 1.5 0
651 1 1.5 0
652 0 1.55 0
653 0.05 1.55 0
654 0.1 1.55 0
655 0.15 1.55 0
656 0.2 1.55 0
657 0.25 1.55 0
658 0.3 1.55 0
659 0.35 1.55 0
660 0.4 1.55 0
661 0.45 1.55 0
662 0.5 1.55 0
663 0.55 1.55 0
664 0.6 1.55 0
665 0.65 1.55 0
666 0.7 1.55 0
667 0.75 1.55 0
668 0.8 1.55 0
669 0.85 1.55 0
670 0.9 1.55 0
671 0.95 1.55 0
672 1 1.55 0
673 0 1.6 0
674 0.05 1.6 0
675 0.1 1.6 0
676 0.15 1.6 0
677 0.2 1.6 0
678 0.25 1.6 0
679 0.3 1.6 0
680 0.35 1.6 0
681 0.4 1.6 0
682 0.45 1.6 0
683 0.5 1.6 0
684 0.55 1.6 0
685 0.6 1.6 0
686 0.65 1.6 0
687 0.7 1.6 0
688 0.75 1.6 0
689 0.8 1.6 0
690 0.85 1.6 0
691 0.9 1.6 0
692 0.95 1.6 0
693 1 1.6 0
694 0 1.65 0
695 0.05 1.65 0
696 0.1 1.65 0
697 0.15 1.65 0
698 0.2 1.65 0
699 0.25 1.65 0
700 0.3 1.65 0
701 0.35 1.65 0
702 0.4 1.65 0
703 0.45 1.65 0
704 0.5 1.65 0
705 0.55 1.65 0
706 0.6 1.65 0
707 0.65 1.65 0
708 0.7 1.65 0
709 0.75 1.65 0
710 0.8 1.65 0
711 0.85 1.65 0
712 0.9 1.65 0
713 0.95 1.65 0
714 1 1.65 0
715 0 1.7 0
716 0.05 1.7 0
717 0.1 1.7 0
718 0.15 1.7 0
719 0.2 1.7 0
720 0.25 1.7 0
721 0.3 1.7 0
722 0.35 1.7 0
723 0.4 1.7 0
724 0.45 1.7 0
725 0.5 1.7 0
726 0.55 1.7 0
727 0.6 1.7 0
728 0.65 1.7 0
729 0.7 1.7 0
730 0.75 1.7 0
731 0.8 1.7 0
732 0.85 1.7 0
733 0.9 1.7 0
734 0.95 1.7 0
735 1 1.7 0
736 0 1.75 0
737 0.05 1.75 0
738 0.1 1.75 0
739 0.15 1.75 0
740 0.2 1.75 0
741 0.25 1.75 0
742 0.3 1.75 0
743 0.35 1.75 0
744 0.4 1.75 0
745 0.45 1.75 0
746 0.5 1.75 0
747 0.55 1.75 0
748 0.6 1.75 0
749 0.65 1.75 0
750 0.7 1.75 0
751 0.75 1.75 0
752 0.8 1.75 0
753 0.85 1.75 0
754 0.9 1.75 0
755 0.95 1.75 0
756 1 1.75 0
757 0 1.8 0
758 0.05 1.8 0
759 0.1 1.8 0
760 0.15 1.8 0
761 0.2 1.8 0
762 0.25 1.8 0
763 0.3 1.8 0
764 0.35 1.8 0
765 0.4 1.8 0
766 0.45 1.8 0
767 0.5 1.8 0
768 0.55 1.8 0
769 0.6 1.8 0
770 0.65 1.8 0
771 0.7 1.8 0
772 0.75 1.8 0
773 0.8 1.8 0
774 0.85 1.8 0
775 0.9 1.8 0
776 0.95 1.8 0
777 1 1.8 0
778 0 1.85 0
779 0.05 1.85 0
780 0.1 1.85 0
781 0.15 1.85 0
782 0.2 1.85 0
783 0.25 1.85 0
784 0.3 1.85 0
785 0.35 1.85 0
786 0.4 1.85 0
787 0.45 1.85 0
788 0.5 1.85 0
789 0.55 1.85 0
790 0.6 1.85 0
791 0.65 1.85 0
792 0.7 1.85 0
793 0.75 1.85 0
794 0.8 1.85 0
795 0.85 1.85 0
796 0.9 1.85 0
797 0.95 1.85 0
798 1 1.85 0
799 0 1.9 0
800 0.05 1.9 0
801 0.1 1.9 0
802 0.15 1.9 0
803 0.2 1.9 0
804 0.25 1.9 0
805 0.3 1.9 0
806 0.35 1.9 0
807 0.4 1.9 0
808 0.45 1.9 0
809 0.5 1.9 0
810 0.55 1.9 0
811 0.6 1.9 0
812 0.65 1.9 0
813 0.7 1.9 0
814 0.75 1.9 0
815 0.8 1.9 0
816 0.85 1.9 0
817 0.9 1.9 0
818 0.95 1.9 0
819 1 1.9 0
820 0 1.95 0
821 0.05 1.95 0
822 0.1 1.95 0
823 0.15 1.95 0
824 0.2 1.95 0
825 0.25 1.95 0
826 0.3 1.95 0
827 0.35 1.95 0
828 0.4 1.95 0
829 0.45 1.95 0
830 0.5 1.95 0
831 0.55 1.95 0
832 0.6 1.95 0
833 0.65 1.95 0
834 0.7 1.95 0
835 0.75 1.95 0
836 0.8 1.95 0
837 0.85 1.95 0
838 0.9 1.95 0
839 0.95 1.95 0
840 1 1.95 0
841 0 2 0
842 0.05 2 0
843 0.1 2 0
844 0.15 2 0
845 0.2 2 0
846 0.25 2 0
847 0.3 2 0
848 0.35 2 0
849 0.4 2 0
850 0.45 2 0
851 0.5 2 0
852 0.55 2 0
853 0.6 2 0
854 0.65 2 0
855 0.7 2 0
856 0.75 2 0
857 0.8 2 0
858 0.85 2 0
859 0.9 2 0
860 0.95 2 0
861 1 2 0
$EndNodes
$Elements
920
1 1 2 1 1 1 2
2 1 2 1 1 2 3
3 1 2 1 1 3 4
4 1 2 1 1 4 5
5 1 2 1 1 5 6
6 1 2 1 1 6 7
7 1 2 1 1 7 8
8 1 2 1 1 8 9
9 1 2 1 1 9 10
10 1 2 1 1 10 11
11 1 2 1 1 11 12
12 1 2 1 1 12 13
13 1 2 1 1 13 14
14 1 2 1 1 14 15
15 1 2 1 1 15 16
16 1 2 1 1 16 17
17 1 2 1 1 17 18
18 1 2 1 1 18 19
19 1 2 1 1 19 20
20 1 2 1 1 20 21
21 1 2 4 1 21 42
22 1 2 4 1 42 63
23 1 2 4 1 63 84
24 1 2 4 1 84 105
25 1 2 4 1 105 126
26 1 2 4 1 126 147
27 1 2 4 1 147 168
28 1 2 4 1 168 189
29 1 2 4 1 189 210
30 1 2 4 1 210 231
31 1 2 4 1 231 252
32 1 2 4 1 252 273
33 1 2 4 1 273 294
34 1 2 4 1 294 315
35 1 2 4 1 315 336
36 1 2 4 1 336 357
37 1 2 4 1 357 378
38 1 2 4 1 378 399
39 1 2 4 1 399 420
40 1 2 4 1 420 441
41 1 2 4 1 441 462
42 1 2 4 1 462 483
43 1 2 4 1 483 504
44 1 2 4 1 504 525
45 1 2 4 1 525 546
46 1 2 4 1 546 567
47 1 2 4 1 567 588
48 1 2 4 1 588 609
49 1 2 4 1 609 630
50 1 2 4 1 630 651
51 1 2 4 1 651 672
52 1 2 4 1 672 693
53 1 2 4 1 693 714
54 1 2 4 1 714 735
55 1 2 4 1 735 756
56 1 2 4 1 756 777
57 1 2 4 1 777 798
58 1 2 4 1 798 819
59 1 2 4 1 819 840
60 1 2 4 1 840 861
61 1 2 1 1 842 841
62 1 2 1 1 843 842
63 1 2 1 1 844 843
64 1 2 1 1 845 844
65 1 2 1 1 846 845
66 1 2 1 1 847 846
67 1 2 1 1 848 847
68 1 2 1 1 849 848
69 1 2 1 1 850 849
70 1 2 1 1 851 850
71 1 2 1 1 852 851
72 1 2 1 1 853 852
73 1 2 1 1 854 853
74 1 2 1 1 855 854
75 1 2 1 1 856 855
76 1 2 1 1 857 856
77 1 2 1 1 858 857
78 1 2 1 1 859 858
79 1 2 1 1 860 859
80 1 2 1 1 861 860
81 1 2 4 1 22 1
82 1 2 4 1 43 22
83 1 2 4 1 64 43
84 1 2 4 1 85 64
85 1 2 4 1 106 85
86 1 2 4 1 127 106
87 1 2 4 1 148 127
88 1 2 4 1 169 148
89 1 2 4 1 190 169
90 1 2 4 1 211 190
91 1 2 4 1 232 211
92 1 2 4 1 253 232
93 1 2 4 1 274 253
94 1 2 4 1 295 274
95 1 2 4 1 316 295
96 1 2 4 1 337 316
97 1 2 4 1 358 337
98 1 2 4 1 379 358
99 1 2 4 1 400 379
100 1 2 4 1 421 400
101 1 2 4 1 442 421
102 1 2 4 1 463 442
103 1 2 4 1 484 463
104 1 2 4 1 505 484
105 1 2 4 1 526 505
106 1 2 4 1 547 526
107 1 2 4 1 568 547
108 1 2 4 1 589 568
109 1 2 4 1 610 589
110 1 2 4 1 631 610
111 1 2 4 1 652 631
112 1 2 4 1 673 652
113 1 2 4 1 694 673
114 1 2 4 1 715 694
115 1 2 4 1 736 715
116 1 2 4 1 757 736
117 1 2 4 1 778 757
118 1 2 4 1 799 778
119 1 2 4 1 820 799
120 1 2 4 1 841 820
121 3 2 9 1 1 2 23 22
122 3 2 9 1 2 3 24 23
123 3 2 9 1 3 4 25 24
124 3 2 9 1 4 5 26 25
125 3 2 9 1 5 6 27 26
126 3 2 9 1 6 7 28 27
127 3 2 9 1 7 8 29 28
128 3 2 9 1 8 9 30 29
129 3 2 9 1 9 10 31 30
130 3 2 9 1 10 11 32 31
131 3 2 9 1 11 12 33 32
132 3 2 9 1 12 13 34 33
133 3 2 9 1 13 14 35 34
134 3 2 9 1 14 15 36 35
135 3 2 9 1 15 16 37 36
136 3 2 9 1 16 17 38 37
137 3 2 9 1 17 18 39 38
138 3 2 9 1 18 19 40 39
139 3 2 9 1 19 20 41 40
140 3 2 9 1 20 21 42 41
141 3 2 9 1 22 23 44 43
142 3 2 9 1 23 24 45 44
143 3 2 9 1 24 25 46 45
144 3 2 9 1 25 26 47 46
145 3 2 9 1 26 27 48 47
146 3 2 9 1 27 28 49 48
147 3 2 9 1 28 29 50 49
148 3 2 9 1 29 30 51 50
149 3 2 9 1 30 31 52 51
150 3 2 9 1 31 32 53 52
151 3 2 9 1 32 33 54 53
152 3 2 9 1 33 34 55 54
153 3 2 9 1 34 35 56 55
154 3 2 9 1 35 36 57 56
155 3 2 9 1 36 37 58 57
156 3 2 9 1 37 38 59 58
157 3 2 9 1 38 39 60 59
158 3 2 9 1 39 40 61 60
159 3 2 9 1 40 41 62 61
160 3 2 9 1 41 42 63 62
161 3 2 9 1 43 44 65 64
162 3 2 9 1 44 45 66 65
163 3 2 9 1 45 46 67 66
164 3 2 9 1 46 47 68 67
165 3 2 9 1 47 48 69 68
166 3 2 9 1 48 49 70 69
167 3 2 9 1 49 50 71 70
168 3 2 9 1 50 51 72 71
169 3 2 9 1 51 52 73 72
170 3 2 9 1 52 53 74 73
171 3 2 9 1 53 54 75 74
172 3 2 9 1 54 55 76 75
173 3 2 9 1 55 56 77 76
174 3 2 9 1 56 57 78 77
175 3 2 9 1 57 58 79 78
176 3 2 9 1 58 59 80 79
177 3 2 9 1 59 60 81 80
178 3 2 9 1 60 61 82 81
179 3 2 9 1 61 62 83 82
180 3 2 9 1 62 63 84 83
181 3 2 9 1 64 65 86 85
182 3 2 9 1 65 66 87 86
183 3 2 9 1 66 67 88 87
184 3 2 9 1 67 68 89 88
185 3 2 9 1 68 69 90 89
186 3 2 9 1 69 70 91 90
187 3 2 9 1 70 71 92 91
188 3 2 9 1 71 72 93 92
189 3 2 9 1 72 73 94 93
190 3 2 9 1 73 74 95 94
191 3 2 9 1 74 75 96 95
192 3 2 9 1 75 76 97 96
193 3 2 9 1 76 77 98 97
194 3 2 9 1 77 78 99 98
195 3 2 9 1 78 79 100 99
196 3 2 9 1 79 80 101 100
197 3 2 9 1 80 81 102 101
198 3 2 9 1 81 82 103 102
199 3 2 9 1 82 83 104 103
200 3 2 9 1 83 84 105 104
201 3 2 9 1 85 86 107 106
202 3 2 9 1 86 87 108 107
203 3 2 9 1 87 88 109 108
204 3 2 9 1 88 89 110 109
205 3 2 9 1 89 90 111 110
206 3 2 9 1 90 91 112 111
207 3 2 9 1 91 92 113 112
208 3 2 9 1 92 93 114 113
209 3 2 9 1 93 94 115 114
210 3 2 9 1 94 95 116 115
211 3 2 9 1 95 96 117 116
212 3 2 9 1 96 97 118 117
213 3 2 9 1 97 98 119 118
214 3 2 9 1 98 99 120 119
215 3 2 9 1 99 100 121 120
216 3 2 9 1 100 101 122 121
217 3 2 9 1 101 102 123 122
218 3 2 9 1 102 103 124 123
219 3 2 9 1 103 104 125 124
220 3 2 9 1 104 105 126 125
221 3 2 9 1 106 107 128 127
222 3 2 9 1 107 108 129 128
223 3 2 9 1 108 109 130 129
224 3 2 9 1 109 110 131 130
225 3 2 9 1 110 111 132 131
226 3 2 9 1 111 112 133 132
227 3 2 9 1 112 113 134 133
228 3 2 9 1 113 114 135 134
229 3 2 9 1 114 115 136 135
230 3 2 9 1 115 116 137 136
231 3 2 9 1 116 117 138 137
232 3 2 9 1 117 118 139 138
233 3 2 9 1 118 119 140 139
234 3 2 9 1 119 120 141 140
235 3 2 9 1 120 121 142 141
236 3 2 9 1 121 122 143 142
237 3 2 9 1 122 123 144 143
238 3 2 9 1 123 124 145 144
239 3 2 9 1 124 125 146 145
240 3 2 9 1 125 126 147 146
241 3 2 9 1 127 128 149 148
242 3 2 9 1 128 129 150 149
243 3 2 9 1 129 130 151 150
244 3 2 9 1 130 131 152 151
245 3 2 9 1 131 132 153 152
246 3 2 9 1 132 133 154 153
247 3 2 9 1 133 134 155 154
248 3 2 9 1 134 135 156 155
249 3 2 9 1 135 136 157 156
250 3 2 9 1 136 137 158 157
251 3 2 9 1 137 138 159 158
252 3 2 9 1 138 139 160 159
253 3 2 9 1 139 140 161 160
254 3 2 9 1 140 141 162 161
255 3 2 9 1 141 142 163 162
256 3 2 9 1 142 143 164 163
257 3 2 9 1 143 144 165 164
258 3 2 9 1 144 145 166 165
259 3 2 9 1 145 146 167 166
260 3 2 9 1 146 147 168 167
261 3 2 9 1 148 149 170 169
262 3 2 9 1 149 150 171 170
263 3 2 9 1 150 151 172 171
264 3 2 9 1 151 152 173 172
265 3 2 9 1 152 153 174 173
266 3 2 9 1 153 154 175 174
267 3 2 9 1 154 155 176 175
268 3 2 9 1 155 156 177 176
269 3 2 9 1 156 157 178 177
270 3 2 9 1 157 158 179 178
271 3 2 9 1 158 159 180 179
272 3 2 9 1 159 160 181 180
273 3 2 9 1 160 161 182 181
274 3 2 9 1 161 162 183 182
275 3 2 9 1 162 163 184 183
276 3 2 9 1 163 164 185 184
277 3 2 9 1 164 165 186 185
278 3 2 9 1 165 166 187 186
279 3 2 9 1 166 167 188 187
280 3 2 9 1 167 168 189 188
281 3 2 9 1 169 170 191 190
282 3 2 9 1 170 171 192 191
283 3 2 9 1 171 172 193 192
284 3 2 9 1 172 173 194 193
285 3 2 9 1 173 174 195 194
286 3 2 9 1 174 175 196 195
287 3 2 9 1 175 176 197 196
288 3 2 9 1 176 177 198 197
289 3 2 9 1 177 178 199 198
290 3 2 9 1 178 179 200 199
291 3 2 9 1 179 180 201 200
292 3 2 9 1 180 181 202 201
293 3 2 9 1 181 182 203 202
294 3 2 9 1 182 183 204 203
295 3 2 9 1 183 184 205 204
296 3 2 9 1 184 185 206 205
297 3 2 9 1 185 186 207 206
298 3 2 9 1 186 187 208 207
299 3 2 9 1 187 188 209 208
300 3 2 9 1 188 189 210 209
301 3 2 9 1 190 191 212 211
302 3 2 9 1 191 192 213 212
303 3 2 9 1 192 193 214 213
304 3 2 9 1 193 194 215 214
305 3 2 9 1 194 195 216 215
306 3 2 9 1 195 196 217 216
307 3 2 9 1 196 197 218 217
308 3 2 9 1 197 198 219 218
309 3 2 9 1 198 199 220 219
310 3 2 9 1 199 200 221 220
311 3 2 9 1 200 201 222 221
312 3 2 9 1 201 202 223 222
313 3 2 9 1 202 203 224 223
314 3 2 9 1 203 204 225 224
315 3 2 9 1 204 205 226 225
316 3 2 9 1 205 206 227 226
317 3 2 9 1 206 207 228 227
318 3 2 9 1 207 208 229 228
319 3 2 9 1 208 209 230 229
320 3 2 9 1 209 210 231 230
321 3 2 9 1 211 212 233 232
322 3 2 9 1 212 213 234 233
323 3 2 9 1 213 214 235 234
324 3 2 9 1 214 215 236 235
325 3 2 9 1 215 216 237 236
326 3 2 9 1 216 217 238 237
327 3 2 9 1 217 218 239 238
328 3 2 9 1 218 219 240 239
329 3 2 9 1 219 220 241 240
330 3 2 9 1 220 221 242 241
331 3 2 9 1 221 222 243 242
332 3 2 9 1 222 223 244 243
333 3 2 9 1 223 224 245 244
334 3 2 9 1 224 225 246 245
335 3 2 9 1 225 226 247 246
336 3 2 9 1 226 227 248 247
337 3 2 9 1 227 228 249 248
338 3 2 9 1 228 229 250 249
339 3 2 9 1 229 230 251 250
340 3 2 9 1 230 231 252 251
341 3 2 9 1 232 233 254 253
342 3 2 9 1 233 234 255 254
343 3 2 9 1 234 235 256 255
344 3 2 9 1 235 236 257 256
345 3 2 9 1 236 237 258 257
346 3 2 9 1 237 238 259 258
347 3 2 9 1 238 239 260 259
348 3 2 9 1 239 240 261 260
349 3 2 9 1 240 241 262 261
350 3 2 9 1 241 242 263 262
351 3 2 9 1 242 243 264 263
352 3 2 9 1 243 244 265 264
353 3 2 9 1 244 245 266 265
354 3 2 9 1 245 246 267 266
355 3 2 9 1 246 247 268 267
356 3 2 9 1 247 248 269 268
357 3 2 9 1 248 249 270 269
358 3 2 9 1 249 250 271 270
359 3 2 9 1 250 251 272 271
360 3 2 9 1 251 252 273 272
361 3 2 9 1 253 254 275 274
362 3 2 9 1 254 255 276 275
363 3 2 9 1 255 256 277 276
364 3 2 9 1 256 257 278 277
365 3 2 9 1 257 258 279 278
366 3 2 9 1 258 259 280 279
367 3 2 9 1 259 260 281 280
368 3 2 9 1 260 261 282 281
369 3 2 9 1 261 262 283 282
370 3 2 9 1 262 263 284 283
371 3 2 9 1 263 264 285 284
372 3 2 9 1 264 265 286 285
373 3 2 9 1 265 266 287 286
374 3 2 9 1 266 267 288 287
375 3 2 9 1 267 268 289 288
376 3 2 9 1 268 269 290 289
377 3 2 9 1 269 270 291 290
378 3 2 9 1 270 271 292 291
379 3 2 9 1 271 272 293 292
380 3 2 9 1 272 273 294 293
381 3 2 9 1 274 275 296 295
382 3 2 9 1 275 276 297 296
383 3 2 9 1 276 277 298 297
384 3 2 9 1 277 278 299 298
385 3 2 9 1 278 279 300 299
386 3 2 9 1 279 280 301 300
387 3 2 9 1 280 281 302 301
388 3 2 9 1 281 282 303 302
389 3 2 9 1 282 283 304 303
390 3 2 9 1 283 284 305 304
391 3 2 9 1 284 285 306 305
392 3 2 9 1 285 286 307 306
393 3 2 9 1 286 287 308 307
394 3 2 9 1 287 288 309 308
395 3 2 9 1 288 289 310 309
396 3 2 9 1 289 290 311 310
397 3 2 9 1 290 291 312 311
398 3 2 9 1 291 292 313 312
399 3 2 9 1 292 293 314 313
400 3 2 9 1 293 294 315 314
401 3 2 9 1 295 296 317 316
402 3 2 9 1 296 297 318 317
403 3 2 9 1 297 298 319 318
404 3 2 9 1 298 299 320 319
405 3 2 9 1 299 300 321 320
406 3 2 9 1 300 301 322 321
407 3 2 9 1 301 302 323 322
408 3 2 9 1 302 303 324 323
409 3 2 9 1 303 304 325 324
410 3 2 9 1 304 305 326 325
411 3 2 9 1 305 306 327 326
412 3 2 9 1 306 307 328 327
413 3 2 9 1 307 308 329 328
414 3 2 9 1 308 309 330 329
415 3 2 9 1 309 310 331 330
416 3 2 9 1 310 311 332 331
417 3 2 9 1 311 312 333 332
418 3 2 9 1 312 313 334 333
419 3 2 9 1 313 314 335 334
420 3 2 9 1 314 315 336 335
421 3 2 9 1 316 317 338 337
422 3 2 9 1 317 318 339 338
423 3 2 9 1 318 319 340 339
424 3 2 9 1 319 320 341 340
425 3 2 9 1 320 321 342 341
426 3 2 9 1 321 322 343 342
427 3 2 9 1 322 323 344 343
428 3 2 9 1 323 324 345 344
429 3 2 9 1 324 325 346 345
430 3 2 9 1 325 326 347 346
431 3 2 9 1 326 327 348 347
432 3 2 9 1 327 328 349 348
433 3 2 9 1 328 329 350 349
434 3 2 9 1 329 330 351 350
435 3 2 9 1 330 331 352 351
436 3 2 9 1 331 332 353 352
437 3 2 9 1 332 333 354 353
438 3 2 9 1 333 334 355 354
439 3 2 9 1 334 335 356 355
440 3 2 9 1 335 336 357 356
441 3 2 9 1 337 338 359 358
442 3 2 9 1 338 339 360 359
443 3 2 9 1 339 340 361 360
444 3 2 9 1 340 341 362 361
445 3 2 9 1 341 342 363 362
446 3 2 9 1 342 343 364 363
447 3 2 9 1 343 344 365 364
448 3 2 9 1 344 345 366 365
449 3 2 9 1 345 346 367 366
450 3 2 9 1 346 347 368 367
451 3 2 9 1 347 348 369 368
452 3 2 9 1 348 349 370 369
453 3 2 9 1 349 350 371 370
454 3 2 9 1 350 351 372 371
455 3 2 9 1 351 352 373 372
456 3 2 9 1 352 353 374 373
457 3 2 9 1 353 354 375 374
458 3 2 9 1 354 355 376 375
459 3 2 9 1 355 356 377 376
460 3 2 9 1 356 357 378 377
461 3 2 9 1 358 359 380 379
462 3 2 9 1 359 360 381 380
463 3 2 9 1 360 361 382 381
464 3 2 9 1 361 362 383 382
465 3 2 9 1 362 363 384 383
466 3 2 9 1 363 364 385 384
467 3 2 9 1 364 365 386 385
468 3 2 9 1 365 366 387 386
469 3 2 9 1 366 367 388 387
470 3 2 9 1 367 368 389 388
471 3 2 9 1 368 369 390 389
472 3 2 9 1 369 370 391 390
473 3 2 9 1 370 371 392 391
474 3 2 9 1 371 372 393 392
475 3 2 9 1 372 373 394 393
476 3 2 9 1 373 374 395 394
477 3 2 9 1 374 375 396 395
478 3 2 9 1 375 376 397 396
479 3 2 9 1 376 377 398 397
480 3 2 9 1 377 378 399 398
481 3 2 9 1 379 380 401 400
482 3 2 9 1 380 381 402 401
483 3 2 9 1 381 382 403 402
484 3 2 9 1 382 383 404 403
485 3 2 9 1 383 384 405 404
486 3 2 9 1 384 385 406 405
487 3 2 9 1 385 386 407 406
488 3 2 9 1 386 387 408 407
489 3 2 9 1 387 388 409 408
490 3 2 9 1 388 389 410 409
491 3 2 9 1 389 390 411 410
492 3 2 9 1 390 391 412 411
493 3 2 9 1 391 392 413 412
494 3 2 9 1 392 393 414 413
495 3 2 9 1 393 394 415 414
496 3 2 9 1 394 395 416 415
497 3 2 9 1 395 396 417 416
498 3 2 9 1 396 397 418 417
499 3 2 9 1 397 398 419 418
500 3 2 9 1 398 399 420 419
501 3 2 9 1 400 401 422 421
502 3 2 9 1 401 402 423 422
503 3 2 9 1 402 403 424 423
504 3 2 9 1 403 404 425 424
505 3 2 9 1 404 405 426 425
506 3 2 9 1 405 406 427 426
507 3 2 9 1 406 407 428 427
508 3 2 9 1 407 408 429 428
509 3 2 9 1 408 409 430 429
510 3 2 9 1 409 410 431 430
511 3 2 9 1 410 411 432 431
512 3 2 9 1 411 412 433 432
513 3 2 9 1 412 413 434 433
514 3 2 9 1 413 414 435 434
515 3 2 9 1 414 415 436 435
516 3 2 9 1 415 416 437 436
517 3 2 9 1 416 417 438 437
518 3 2 9 1 417 418 439 438
519 3 2 9 1 418 419 440 439
520 3 2 9 1 419 420 441 440
521 3 2 9 1 421 422 443 442
522 3 2 9 1 422 423 444 443
523 3 2 9 1 423 424 445 444
524 3 2 9 1 424 425 446 445
525 3 2 9 1 425 426 447 446
526 3 2 9 1 426 427 448 447
527 3 2 9 1 427 428 449 448
528 3 2 9 1 428 429 450 449
529 3 2 9 1 429 430 451 450
530 3 2 9 1 430 431 452 451
531 3 2 9 1 431 432 453 452
532 3 2 9 1 432 433 454 453
533 3 2 9 1 433 434 455 454
534 3 2 9 1 434 435 456 455
535 3 2 9 1 435 436 457 456
536 3 2 9 1 436 437 458 457
537 3 2 9 1 437 438 459 458
538 3 2 9 1 438 439 460 459
539 3 2 9 1 439 440 461 460
540 3 2 9 1 440 441 462 461
541 3 2 9 1 442 443 464 463
542 3 2 9 1 443 444 465 464
543 3 2 9 1 444 445 466 465
544 3 2 9 1 445 446 467 466
545 3 2 9 1 446 447 468 467
546 3 2 9 1 447 448 469 468
547 3 2 9 1 448 449 470 469
548 3 2 9 1 449 450 471 470
549 3 2 9 1 450 451 472 471
550 3 2 9 1 451 452 473 472
551 3 2 9 1 452 453 474 473
552 3 2 9 1 453 454 475 474
553 3 2 9 1 454 455 476 475
554 3 2 9 1 455 456 477 476
555 3 2 9 1 456 457 478 477
556 3 2 9 1 457 458 479 478
557 3 2 9 1 458 459 480 479
558 3 2 9 1 459 460 481 480
559 3 2 9 1 460 461 482 481
560 3 2 9 1 461 462 483 482
561 3 2 9 1 463 464 485 484
562 3 2 9 1 464 465 486 485
563 3 2 9 1 465 466 487 486
564 3 2 9 1 466 467 488 487
565 3 2 9 1 467 468 489 488
566 3 2 9 1 468 469 490 489
567 3 2 9 1 469 470 491 490
568 3 2 9 1 470 471 492 491
569 3 2 9 1 471 472 493 492
570 3 2 9 1 472 473 494 493
571 3 2 9 1 473 474 495 494
572 3 2 9 1 474 475 496 495
573 3 2 9 1 475 476 497 496
574 3 2 9 1 476 477 498 497
575 3 2 9 1 477 478 499 498
576 3 2 9 1 478 479 500 499
577 3 2 9 1 479 480 501 500
578 3 2 9 1 480 481 502 501
579 3 2 9 1 481 482 503 502
580 3 2 9 1 482 483 504 503
581 3 2 9 1 484 485 506 505
582 3 2 9 1 485 486 507 506
583 3 2 9 1 486 487 508 507
584 3 2 9 1 487 488 509 508
585 3 2 9 1 488 489 510 509
586 3 2 9 1 489 490 511 510
587 3 2 9 1 490 491 512 511
588 3 2 9 1 491 492 513 512
589 3 2 9 1 492 493 514 513
590 3 2 9 1 493 494 515 514
591 3 2 9 1 494 495 516 515
592 3 2 9 1 495 496 517 516
593 3 2 9 1 496 497 518 517
594 3 2 9 1 497 498 519 518
595 3 2 9 1 498 499 520 519
596 3 2 9 1 499 500 521 520
597 3 2 9 1 500 501 522 521
598 3 2 9 1 501 502 523 522
599 3 2 9 1 502 503 524 523
600 3 2 9 1 503 504 525 524
601 3 2 9 1 505 506 527 526
602 3 2 9 1 506 507 528 527
603 3 2 9 1 507 508 529 528
604 3 2 9 1 508 509 530 529
605 3 2 9 1 509 510 531 530
606 3 2 9 1 510 511 532 531
607 3 2 9 1 511 512 533 532
608 3 2 9 1 512 513 534 533
609 3 2 9 1 513 514 535 534
610 3 2 9 1 514 515 536 535
611 3 2 9 1 515 516 537 536
612 3 2 9 1 516 517 538 537
613 3 2 9 1 517 518 539 538
614 3 2 9 1 518 519 540 539
615 3 2 9 1 519 520 541 540
616 3 2 9 1 520 521 542 541
617 3 2 9 1 521 522 543 542
618 3 2 9 1 522 523 544 543
619 3 2 9 1 523 524 545 544
620 3 2 9 1 524 525 546 545
621 3 2 9 1 526 527 548 547
622 3 2 9 1 527 528 549 548
623 3 2 9 1 528 529 550 549
624 3 2 9 1 529 530 551 550
625 3 2 9 1 530 531 552 551
626 3 2 9 1 531 532 553 552
627 3 2 9 1 532 533 554 553
628 3 2 9 1 533 534 555 554
629 3 2 9 1 534 535 556 555
630 3 2 9 1 535 536 557 556
631 3 2 9 1 536 537 558 557
632 3 2 9 1 537 538 559 558
633 3 2 9 1 538 539 560 559
634 3 2 9 1 539 540 561 560
635 3 2 9 1 540 541 562 561
636 3 2 9 1 541 542 563 562
637 3 2 9 1 542 543 564 563
638 3 2 9 1 543 544 565 564
639 3 2 9 1 544 545 566 565
640 3 2 9 1 545 546 567 566
641 3 2 9 1 547 548 569 568
642 3 2 9 1 548 549 570 569
643 3 2 9 1 549 550 571 570
644 3 2 9 1 550 551 572 571
645 3 2 9 1 551 552 573 572
646 3 2 9 1 552 553 574 573
647 3 2 9 1 553 554 575 574
648 3 2 9 1 554 555 576 575
649 3 2 9 1 555 556 577 576
650 3 2 9 1 556 557 578 577
651 3 2 9 1 557 558 579 578
652 3 2 9 1 558 559 580 579
653 3 2 9 1 559 560 581 580
654 3 2 9 1 560 561 582 581
655 3 2 9 1 561 562 583 582
656 3 2 9 1 562 563 584 583
657 3 2 9 1 563 564 585 584
658 3 2 9 1 564 565 586 585
659 3 2 9 1 565 566 587 586
660 3 2 9 1 566 567 588 587
661 3 2 9 1 568 569 590 589
662 3 2 9 1 569 570 591 590
663 3 2 9 1 570 571 592 591
664 3 2 9 1 571 572 593 592
665 3 2 9 1 572 573 594 593
666 3 2 9 1 573 574 595 594
667 3 2 9 1 574 575 596 595
668 3 2 9 1 575 576 597 596
669 3 2 9 1 576 577 598 597
670 3 2 9 1 577 578 599 598
671 3 2 9 1 578 579 600 599
672 3 2 9 1 579 580 601 600
673 3 2 9 1 580 581 602 601
674 3 2 9 1 581 582 603 602
675 3 2 9 1 582 583 604 603
676 3 2 9 1 583 584 605 604
677 3 2 9 1 584 585 606 605
678 3 2 9 1 585 586 607 606
679 3 2 9 1 586 587 608 607
680 3 2 9 1 587 588 609 608
681 3 2 9 1 589 590 611 610
682 3 2 9 1 590 591 612 611
683 3 2 9 1 591 592 613 612
684 3 2 9 1 592 593 614 613
685 3 2 9 1 593 594 615 614
686 3 2 9 1 594 595 616 615
687 3 2 9 1 595 596 617 616
688 3 2 9 1 596 597 618 617
689 3 2 9 1 597 598 619 618
690 3 2 9 1 598 599 620 619
691 3 2 9 1 599 600 621 620
692 3 2 9 1 600 601 622 621
693 3 2 9 1 601 602 623 622
694 3 2 9 1 602 603 624 623
695 3 2 9 1 603 604 625 624
696 3 2 9 1 604 605 626 625
697 3 2 9 1 605 606 627 626
698 3 2 9 1 606 607 628 627
699 3 2 9 1 607 608 629 628
700 3 2 9 1 608 609 630 629
701 3 2 9 1 610 611 632 631
702 3 2 9 1 611 612 633 632
703 3 2 9 1 612 613 634 633
704 3 2 9 1 613 614 635 634
705 3 2 9 1 614 615 636 635
706 3 2 9 1 615 616 637 636
707 3 2 9 1 616 617 638 637
708 3 2 9 1 617 618 639 638
709 3 2 9 1 618 619 640 639
710 3 2 9 1 619 620 641 640
711 3 2 9 1 620 621 642 641
712 3 2 9 1 621 622 643 642
713 3 2 9 1 622 623 644 643
714 3 2 9 1 623 624 645 644
715 3 2 9 1 624 625 646 645
716 3 2 9 1 625 626 647 646
717 3 2 9 1 626 627 648 647
718 3 2 9 1 627 628 649 648
719 3 2 9 1 628 629 650 649
720 3 2 9 1 629 630 651 650
721 3 2 9 1 631 632 653 652
722 3 2 9 1 632 633 654 653
723 3 2 9 1 633 634 655 654
724 3 2 9 1 634 635 656 655
725 3 2 9 1 635 636 657 656
726 3 2 9 1 636 637 658 657
727 3 2 9 1 637 638 659 658
728 3 2 9 1 638 639 660 659
729 3 2 9 1 639 640 661 660
730 3 2 9 1 640 641 662 661
731 3 2 9 1 641 642 663 662
732 3 2 9 1 642 643 664 663
733 3 2 9 1 643 644 665 664
734 3 2 9 1 644 645 666 665
735 3 2 9 1 645 646 667 666
736 3 2 9 1 646 647 668 667
737 3 2 9 1 647 648 669 668
738 3 2 9 1 648 649 670 669
739 3 2 9 1 649 650 671 670
740 3 2 9 1 650 651 672 671
741 3 2 9 1 652 653 674 673
742 3 2 9 1 653 654 675 674
743 3 2 9 1 654 655 676 675
744 3 2 9 1 655 656 677 676
745 3 2 9 1 656 657 678 677
746 3 2 9 1 657 658 679 678
747 3 2 9 1 658 659 680 679
748 3 2 9 1 659 660 681 680
749 3 2 9 1 660 661 682 681
750 3 2 9 1 661 662 683 682
751 3 2 9 1 662 663 684 683
752 3 2 9 1 663 664 685 684
753 3 2 9 1 664 665 686 685
754 3 2 9 1 665 666 687 686
755 3 2 9 1 666 667 688 687
756 3 2 9 1 667 668 689 688
757 3 2 9 1 668 669 690 689
758 3 2 9 1 669 670 691 690
759 3 2 9 1 670 671 692 691
760 3 2 9 1 671 672 693 692
761 3 2 9 1 673 674 695 694
762 3 2 9 1 674 675 696 695
763 3 2 9 1 675 676 697 696
764 3 2 9 1 676 677 698 697
765 3 2 9 1 677 678 699 698
766 3 2 9 1 678 679 700 699
767 3 2 9 1 679 680 701 700
768 3 2 9 1 680 681 702 701
769 3 2 9 1 681 682 703 702
770 3 2 9 1 682 683 704 703
771 3 2 9 1 683 684 705 704
772 3 2 9 1 684 685 706 705
773 3 2 9 1 685 686 707 706
774 3 2 9 1 686 687 708 707
775 3 2 9 1 687 688 709 708
776 3 2 9 1 688 689 710 709
777 3 2 9 1 689 690 711 710
778 3 2 9 1 690 691 712 711
779 3 2 9 1 691 692 713 712
780 3 2 9 1 692 693 714 713
781 3 2 9 1 694 695 716 715
782 3 2 9 1 695 696 717 716
783 3 2 9 1 696 697 718 717
784 3 2 9 1 697 698 719 718
785 3 2 9 1 698 699 720 719
786 3 2 9 1 699 700 721 720
787 3 2 9 1 700 701 722 721
788 3 2 9 1 701 702 723 722
789 3 2 9 1 702 703 724 723
790 3 2 9 1 703 704 725 724
791 3 2 9 1 704 705 726 725
792 3 2 9 1 705 706 727 726
793 3 2 9 1 706 707 728 727
794 3 2 9 1 707 708 729 728
795 3 2 9 1 708 709 730 729
796 3 2 9 1 709 710 731 730
797 3 2 9 1 710 711 732 731
798 3 2 9 1 711 712 733 732
799 3 2 9 1 712 713 734 733
800 3 2 9 1 713 714 735 734
801 3 2 9 1 715 716 737 736
802 3 2 9 1 716 717 738 737
803 3 2 9 1 717 718 739 738
804 3 2 9 1 718 719 740 739
805 3 2 9 1 719 720 741 740
806 3 2 9 1 720 721 742 741
807 3 2 9 1 721 722 743 742
808 3 2 9 1 722 723 744 743
809 3 2 9 1 723 724 745 744
810 3 2 9 1 724 725 746 745
811 3 2 9 1 725 726 747 746
812 3 2 9 1 726 727 748 747
813 3 2 9 1 727 728 749 748
814 3 2 9 1 728 729 750 749
815 3 2 9 1 729 730 751 750
816 3 2 9 1 730 731 752 751
817 3 2 9 1 731 732 753 752
818 3 2 9 1 732 733 754 753
819 3 2 9 1 733 734 755 754
820 3 2 9 1 734 735 756 755
821 3 2 9 1 736 737 758 757
822 3 2 9 1 737 738 759 758
823 3 2 9 1 738 739 760 759
824 3 2 9 1 739 740 761 760
825 3 2 9 1 740 741 762 761
826 3 2 9 1 741 742 763 762
827 3 2 9 1 742 743 764 763
828 3 2 9 1 743 744 765 764
829 3 2 9 1 744 745 766 765
830 3 2 9 1 745 746 767 766
831 3 2 9 1 746 747 768 767
832 3 2 9 1 747 748 769 768
833 3 2 9 1 748 749 770 769
834 3 2 9 1 749 750 771 770
835 3 2 9 1 750 751 772 771
836 3 2 9 1 751 752 773 772
837 3 2 9 1 752 753 774 773
838 3 2 9 1 753 754 775 774
839 3 2 9 1 754 755 776 775
840 3 2 9 1 755 756 777 776
841 3 2 9 1 757 758 779 778
842 3 2 9 1 758 759 780 779
843 3 2 9 1 759 760 781 780
844 3 2 9 1 760 761 782 781
845 3 2 9 1 761 762 783 782
846 3 2 9 1 762 763 784 783
847 3 2 9 1 763 764 785 784
848 3 2 9 1 764 765 786 785
849 3 2 9 1 765 766 787 786
850 3 2 9 1 766 767 788 787
851 3 2 9 1 767 768 789 788
852 3 2 9 1 768 769 790 789
853 3 2 9 1 769 770 791 790
854 3 2 9 1 770 771 792 791
855 3 2 9 1 771 772 793 792
856 3 2 9 1 772 773 794 793
857 3 2 9 1 773 774 795 794
858 3 2 9 1 774 775 796 795
859 3 2 9 1 775 776 797 796
860 3 2 9 1 776 777 798 797
861 3 2 9 1 778 779 800 799
862 3 2 9 1 779 780 801 800
863 3 2 9 1 780 781 802 801
864 3 2 9 1 781 782 803 802
865 3 2 9 1 782 783 804 803
866 3 2 9 1 783 784 805 804
867 3 2 9 1 784 785 806 805
868 3 2 9 1 785 786 807 806
869 3 2 9 1 786 787 808 807
870 3 2 9 1 787 788 809 808
871 3 2 9 1 788 789 810 809
872 3 2 9 1 789 790 811 810
873 3 2 9 1 790 791 812 811
874 3 2 9 1 791 792 813 812
875 3 2 9 1 792 793 814 813
876 3 2 9 1 793 794 815 814
877 3 2 9 1 794 795 816 815
878 3 2 9 1 795 796 817 816
879 3 2 9 1 796 797 818 817
880 3 2 9 1 797 798 819 818
881 3 2 9 1 799 800 821 820
882 3 2 9 1 800 801 822 821
883 3 2 9 1 801 802 823 822
884 3 2 9 1 802 803 824 823
885 3 2 9 1 803 804 825 824
886 3 2 9 1 804 805 826 825
887 3 2 9 1 805 806 827 826
888 3 2 9 1 806 807 828 827
889 3 2 9 1 807 808 829 828
890 3 2 9 1 808 809 830 829
891 3 2 9 1 809 810 831 830
892 3 2 9 1 810 811 832 831
893 3 2 9 1 811 812 833 832
894 3 2 9 1 812 813 834 833
895 3 2 9 1 813 814 835 834
896 3 2 9 1 814 815 836 835
897 3 2 9 1 815 816 837 836
898 3 2 9 1 816 817 838 837
899 3 2 9 1 817 818 839 838
900 3 2 9 1 818 819 840 839
901 3 2 9 1 820 821 842 841
902 3 2 9 1 821 822 843 842
903 3 2 9 1 822 823 844 843
904 3 2 9 1 823 824 845 844
905 3 2 9 1 824 825 846 845
906 3 2 9 1 825 826 847 846
907 3 2 9 1 826 827 848 847
908 3 2 9 1 827 828 849 848
909 3 2 9 1 828 829 850 849
910 3 2 9 1 829 830 851 850
911 3 2 9 1 830 831 852 851
912 3 2 9 1 831 832 853 852
913 3 2 9 1 832 833 854 853
914 3 2 9 1 833 834 855 854
915 3 2 9 1 834 835 856 855
916 3 2 9 1 835 836 857 856
917 3 2 9 1 836 837 858 857
918 3 2 9 1 837 838 859 858
919 3 2 9 1 838 839 860 859
920 3 2 9 1 839 840 861 860
$EndElements
